G04 Layer_Color=16711935*
%FSLAX44Y44*%
%MOMM*%
G71*
G01*
G75*
%ADD45C,4.2032*%
%ADD46C,0.6532*%
%ADD47R,1.1032X1.5032*%
%ADD48R,1.8032X1.1032*%
%ADD49R,0.8032X1.1032*%
%ADD50R,0.9032X1.5032*%
%ADD51R,1.5032X0.9032*%
%ADD52R,1.1032X0.8032*%
%ADD53R,3.4016X3.4016*%
%ADD54R,0.7016X0.3316*%
%ADD55R,0.3316X0.7016*%
D45*
X450000Y100000D02*
D03*
Y200000D02*
D03*
Y300000D02*
D03*
Y400000D02*
D03*
X50000Y300000D02*
D03*
Y200000D02*
D03*
D46*
X175000Y85250D02*
D03*
X348500Y237000D02*
D03*
X343500Y228250D02*
D03*
X346250Y312000D02*
D03*
X354500D02*
D03*
X336500Y336000D02*
D03*
X328250D02*
D03*
X262250Y349250D02*
D03*
X172000Y45750D02*
D03*
X171500Y23750D02*
D03*
X334750Y167250D02*
D03*
X389000Y68750D02*
D03*
X374500D02*
D03*
X367250Y68500D02*
D03*
X396250Y69000D02*
D03*
X378750Y452500D02*
D03*
X394000Y452750D02*
D03*
X365000Y452250D02*
D03*
X165250Y392250D02*
D03*
X164750Y364750D02*
D03*
X173750Y441500D02*
D03*
X174000Y428250D02*
D03*
X148250Y242750D02*
D03*
X156000Y233500D02*
D03*
X148250Y189750D02*
D03*
X245750Y233000D02*
D03*
X255000Y242000D02*
D03*
X264000Y233250D02*
D03*
X264250Y251250D02*
D03*
X257500Y291000D02*
D03*
X252500Y274500D02*
D03*
X237750Y140500D02*
D03*
X245250Y251750D02*
D03*
X165500Y377750D02*
D03*
X160250Y279250D02*
D03*
X361750Y103250D02*
D03*
X157500Y352250D02*
D03*
X345750Y251750D02*
D03*
X252500Y209750D02*
D03*
X239750Y200500D02*
D03*
X215000Y349000D02*
D03*
X237997Y349002D02*
D03*
X350998Y223002D02*
D03*
X366997D02*
D03*
X198002Y145997D02*
D03*
X170998Y342998D02*
D03*
X263002Y146997D02*
D03*
X216631Y210237D02*
D03*
X247500Y284000D02*
D03*
X276000Y283000D02*
D03*
X293000Y265000D02*
D03*
X286250Y210000D02*
D03*
X262500Y274500D02*
D03*
X221750Y229500D02*
D03*
X211998Y256003D02*
D03*
X214750Y239250D02*
D03*
X94450Y105050D02*
D03*
X286000Y191750D02*
D03*
X177750Y66750D02*
D03*
X108250Y36000D02*
D03*
X173750Y415250D02*
D03*
X93250Y441000D02*
D03*
X177500Y453000D02*
D03*
X242500Y275750D02*
D03*
X222000Y254500D02*
D03*
X345750Y283500D02*
D03*
X342790Y208540D02*
D03*
X163000Y114000D02*
D03*
X202750Y299750D02*
D03*
D47*
X332500Y185777D02*
D03*
X313500D02*
D03*
X348503Y297000D02*
D03*
X367503D02*
D03*
X332500Y208540D02*
D03*
X313500D02*
D03*
X369500Y162000D02*
D03*
X350500D02*
D03*
X198500Y210237D02*
D03*
X179500D02*
D03*
X332500Y232000D02*
D03*
X313500D02*
D03*
X332500Y321000D02*
D03*
X313500D02*
D03*
D48*
X190000Y313500D02*
D03*
Y342500D02*
D03*
D49*
X366500Y186000D02*
D03*
X351500D02*
D03*
X351500Y207000D02*
D03*
X366500D02*
D03*
X326500Y252763D02*
D03*
X311500D02*
D03*
D50*
X200500Y256003D02*
D03*
X181500D02*
D03*
X181500Y280000D02*
D03*
X200500D02*
D03*
X200500Y233000D02*
D03*
X181500D02*
D03*
X330500Y274000D02*
D03*
X311500D02*
D03*
X330500Y297003D02*
D03*
X311500D02*
D03*
D51*
X220992Y181500D02*
D03*
Y162500D02*
D03*
X238005Y312500D02*
D03*
Y331500D02*
D03*
X174000Y162500D02*
D03*
Y181500D02*
D03*
X215002Y331500D02*
D03*
Y312500D02*
D03*
X286003Y162275D02*
D03*
Y181275D02*
D03*
X197990Y162500D02*
D03*
Y181500D02*
D03*
X262997Y162275D02*
D03*
Y181275D02*
D03*
X286930Y332500D02*
D03*
Y313500D02*
D03*
X262000Y332500D02*
D03*
Y313500D02*
D03*
D52*
X241995Y177275D02*
D03*
Y162275D02*
D03*
D53*
X255000Y242000D02*
D03*
D54*
X279000Y259500D02*
D03*
Y254500D02*
D03*
Y249500D02*
D03*
Y244500D02*
D03*
Y239500D02*
D03*
Y234500D02*
D03*
Y229500D02*
D03*
Y224500D02*
D03*
X231000D02*
D03*
Y229500D02*
D03*
Y234500D02*
D03*
Y239500D02*
D03*
Y244500D02*
D03*
Y249500D02*
D03*
Y254500D02*
D03*
Y259500D02*
D03*
D55*
X272500Y218000D02*
D03*
X267500D02*
D03*
X262500D02*
D03*
X257500D02*
D03*
X252500D02*
D03*
X247500D02*
D03*
X242500D02*
D03*
X237500D02*
D03*
Y266000D02*
D03*
X242500D02*
D03*
X247500D02*
D03*
X252500D02*
D03*
X257500D02*
D03*
X262500D02*
D03*
X267500D02*
D03*
X272500D02*
D03*
M02*
