G04 Layer_Color=32896*
%FSLAX44Y44*%
%MOMM*%
G71*
G01*
G75*
%ADD21C,0.2540*%
%ADD29C,0.2000*%
D21*
X283750Y272250D02*
X280418D01*
X282084D01*
Y282247D01*
X283750Y280581D01*
X147168Y60250D02*
X150500Y63582D01*
Y66915D01*
X147168Y70247D01*
X135505Y66915D02*
X140503D01*
X142169Y65248D01*
Y61916D01*
X140503Y60250D01*
X135505D01*
X132173D02*
X128840Y63582D01*
Y66915D01*
X132173Y70247D01*
X107181Y60250D02*
X113845D01*
X107181Y66915D01*
Y68581D01*
X108847Y70247D01*
X112179D01*
X113845Y68581D01*
X103848D02*
X102182Y70247D01*
X98850D01*
X97184Y68581D01*
Y61916D01*
X98850Y60250D01*
X102182D01*
X103848Y61916D01*
Y68581D01*
X93852Y60250D02*
X90519D01*
X92185D01*
Y70247D01*
X93852Y68581D01*
X78857Y70247D02*
X82189Y68581D01*
X85521Y65248D01*
Y61916D01*
X83855Y60250D01*
X80523D01*
X78857Y61916D01*
Y63582D01*
X80523Y65248D01*
X85521D01*
X65527Y70247D02*
Y60250D01*
X60529D01*
X58863Y61916D01*
Y68581D01*
X60529Y70247D01*
X65527D01*
X55531Y60250D02*
Y66915D01*
X52198Y70247D01*
X48866Y66915D01*
Y60250D01*
Y65248D01*
X55531D01*
X38869Y61916D02*
Y68581D01*
X40535Y70247D01*
X43868D01*
X45534Y68581D01*
Y61916D01*
X43868Y60250D01*
X40535D01*
X42202Y63582D02*
X38869Y60250D01*
X40535D02*
X38869Y61916D01*
X28873Y68581D02*
X30539Y70247D01*
X33871D01*
X35537Y68581D01*
Y66915D01*
X33871Y65248D01*
X30539D01*
X28873Y63582D01*
Y61916D01*
X30539Y60250D01*
X33871D01*
X35537Y61916D01*
X25540Y66915D02*
Y61916D01*
X23874Y60250D01*
X18876D01*
Y58584D01*
X20542Y56918D01*
X22208D01*
X18876Y60250D02*
Y66915D01*
X15544Y60250D02*
X10545D01*
X8879Y61916D01*
X10545Y63582D01*
X13877D01*
X15544Y65248D01*
X13877Y66915D01*
X8879D01*
X438000Y487494D02*
X431335D01*
X434668D01*
Y467500D01*
X438000D01*
X431335D01*
X408010Y484161D02*
X411342Y487494D01*
X418007D01*
X421339Y484161D01*
Y480829D01*
X418007Y477497D01*
X411342D01*
X408010Y474165D01*
Y470832D01*
X411342Y467500D01*
X418007D01*
X421339Y470832D01*
X401345Y487494D02*
Y467500D01*
X388016D01*
X368023Y487494D02*
X374687Y484161D01*
X381352Y477497D01*
Y470832D01*
X378019Y467500D01*
X371355D01*
X368023Y470832D01*
Y474165D01*
X371355Y477497D01*
X381352D01*
X348029Y467500D02*
X361358D01*
X348029Y480829D01*
Y484161D01*
X351361Y487494D01*
X358026D01*
X361358Y484161D01*
X341365D02*
X338032Y487494D01*
X331368D01*
X328035Y484161D01*
Y480829D01*
X331368Y477497D01*
X334700D01*
X331368D01*
X328035Y474165D01*
Y470832D01*
X331368Y467500D01*
X338032D01*
X341365Y470832D01*
X308042Y487494D02*
X314706Y484161D01*
X321371Y477497D01*
Y470832D01*
X318039Y467500D01*
X311374D01*
X308042Y470832D01*
Y474165D01*
X311374Y477497D01*
X321371D01*
X301377Y467500D02*
Y480829D01*
X294713Y487494D01*
X288048Y480829D01*
Y467500D01*
Y477497D01*
X301377D01*
X261390Y487494D02*
Y467500D01*
X251394D01*
X248061Y470832D01*
Y484161D01*
X251394Y487494D01*
X261390D01*
X231400Y467500D02*
X238064D01*
X241397Y470832D01*
Y477497D01*
X238064Y480829D01*
X231400D01*
X228068Y477497D01*
Y474165D01*
X241397D01*
X221403Y467500D02*
Y480829D01*
X218071D01*
X214739Y477497D01*
Y467500D01*
Y477497D01*
X211406Y480829D01*
X208074Y477497D01*
Y467500D01*
X198077D02*
X191413D01*
X188081Y470832D01*
Y477497D01*
X191413Y480829D01*
X198077D01*
X201410Y477497D01*
Y470832D01*
X198077Y467500D01*
X161422Y487494D02*
Y467500D01*
X151426D01*
X148093Y470832D01*
Y474165D01*
X151426Y477497D01*
X161422D01*
X151426D01*
X148093Y480829D01*
Y484161D01*
X151426Y487494D01*
X161422D01*
X138097Y467500D02*
X131432D01*
X128100Y470832D01*
Y477497D01*
X131432Y480829D01*
X138097D01*
X141429Y477497D01*
Y470832D01*
X138097Y467500D01*
X118103Y480829D02*
X111439D01*
X108106Y477497D01*
Y467500D01*
X118103D01*
X121435Y470832D01*
X118103Y474165D01*
X108106D01*
X101442Y480829D02*
Y467500D01*
Y474165D01*
X98110Y477497D01*
X94777Y480829D01*
X91445D01*
X68119Y487494D02*
Y467500D01*
X78116D01*
X81448Y470832D01*
Y477497D01*
X78116Y480829D01*
X68119D01*
X330593Y22196D02*
X333133Y24735D01*
X338211D01*
X340750Y22196D01*
Y12039D01*
X338211Y9500D01*
X333133D01*
X330593Y12039D01*
X325515Y9500D02*
X320437D01*
X322976D01*
Y24735D01*
X325515Y22196D01*
X401093Y302696D02*
X403633Y305235D01*
X408711D01*
X411250Y302696D01*
Y292539D01*
X408711Y290000D01*
X403633D01*
X401093Y292539D01*
X385858Y290000D02*
X396015D01*
X385858Y300157D01*
Y302696D01*
X388397Y305235D01*
X393476D01*
X396015Y302696D01*
X330593Y46296D02*
X333133Y48835D01*
X338211D01*
X340750Y46296D01*
Y36139D01*
X338211Y33600D01*
X333133D01*
X330593Y36139D01*
X317897Y33600D02*
Y48835D01*
X325515Y41217D01*
X315358D01*
X401093Y166946D02*
X403633Y169485D01*
X408711D01*
X411250Y166946D01*
Y156789D01*
X408711Y154250D01*
X403633D01*
X401093Y156789D01*
X385858Y169485D02*
X390937Y166946D01*
X396015Y161868D01*
Y156789D01*
X393476Y154250D01*
X388397D01*
X385858Y156789D01*
Y159328D01*
X388397Y161868D01*
X396015D01*
X128093Y217696D02*
X130632Y220235D01*
X135711D01*
X138250Y217696D01*
Y207539D01*
X135711Y205000D01*
X130632D01*
X128093Y207539D01*
X123015Y220235D02*
X112858D01*
Y217696D01*
X123015Y207539D01*
Y205000D01*
X182304Y388593D02*
X179765Y391133D01*
Y396211D01*
X182304Y398750D01*
X192461D01*
X195000Y396211D01*
Y391133D01*
X192461Y388593D01*
X182304Y383515D02*
X179765Y380976D01*
Y375897D01*
X182304Y373358D01*
X184843D01*
X187383Y375897D01*
X189922Y373358D01*
X192461D01*
X195000Y375897D01*
Y380976D01*
X192461Y383515D01*
X189922D01*
X187383Y380976D01*
X184843Y383515D01*
X182304D01*
X187383Y380976D02*
Y375897D01*
X330593Y70396D02*
X333133Y72935D01*
X338211D01*
X340750Y70396D01*
Y60239D01*
X338211Y57700D01*
X333133D01*
X330593Y60239D01*
X325515Y57700D02*
X320437D01*
X322976D01*
Y72935D01*
X325515Y70396D01*
X312819Y57700D02*
X307741D01*
X310280D01*
Y72935D01*
X312819Y70396D01*
X313804Y388593D02*
X311265Y391133D01*
Y396211D01*
X313804Y398750D01*
X323961D01*
X326500Y396211D01*
Y391133D01*
X323961Y388593D01*
X326500Y383515D02*
Y378437D01*
Y380976D01*
X311265D01*
X313804Y383515D01*
X326500Y360662D02*
Y370819D01*
X316343Y360662D01*
X313804D01*
X311265Y363201D01*
Y368280D01*
X313804Y370819D01*
X411250Y179000D02*
Y194235D01*
X403633D01*
X401093Y191696D01*
Y186618D01*
X403633Y184078D01*
X411250D01*
X406172D02*
X401093Y179000D01*
X396015D02*
X390937D01*
X393476D01*
Y194235D01*
X396015Y191696D01*
X411250Y203750D02*
Y218985D01*
X403633D01*
X401093Y216446D01*
Y211367D01*
X403633Y208828D01*
X411250D01*
X406172D02*
X401093Y203750D01*
X385858D02*
X396015D01*
X385858Y213907D01*
Y216446D01*
X388397Y218985D01*
X393476D01*
X396015Y216446D01*
X138250Y251000D02*
Y266235D01*
X130632D01*
X128093Y263696D01*
Y258617D01*
X130632Y256078D01*
X138250D01*
X133172D02*
X128093Y251000D01*
X123015Y263696D02*
X120476Y266235D01*
X115397D01*
X112858Y263696D01*
Y261157D01*
X115397Y258617D01*
X117937D01*
X115397D01*
X112858Y256078D01*
Y253539D01*
X115397Y251000D01*
X120476D01*
X123015Y253539D01*
X138250Y274000D02*
Y289235D01*
X130632D01*
X128093Y286696D01*
Y281618D01*
X130632Y279078D01*
X138250D01*
X133172D02*
X128093Y274000D01*
X115397D02*
Y289235D01*
X123015Y281618D01*
X112858D01*
X138250Y228000D02*
Y243235D01*
X130632D01*
X128093Y240696D01*
Y235618D01*
X130632Y233078D01*
X138250D01*
X133172D02*
X128093Y228000D01*
X112858Y243235D02*
X123015D01*
Y235618D01*
X117937Y238157D01*
X115397D01*
X112858Y235618D01*
Y230539D01*
X115397Y228000D01*
X120476D01*
X123015Y230539D01*
X213650Y100500D02*
X228885D01*
Y108118D01*
X226346Y110657D01*
X221268D01*
X218728Y108118D01*
Y100500D01*
Y105578D02*
X213650Y110657D01*
X228885Y125892D02*
X226346Y120813D01*
X221268Y115735D01*
X216189D01*
X213650Y118274D01*
Y123353D01*
X216189Y125892D01*
X218728D01*
X221268Y123353D01*
Y115735D01*
X247600Y398750D02*
X232365D01*
Y391133D01*
X234904Y388593D01*
X239982D01*
X242522Y391133D01*
Y398750D01*
Y393672D02*
X247600Y388593D01*
X232365Y383515D02*
Y373358D01*
X234904D01*
X245061Y383515D01*
X247600D01*
X171250Y100500D02*
X186485D01*
Y108118D01*
X183946Y110657D01*
X178867D01*
X176328Y108118D01*
Y100500D01*
Y105578D02*
X171250Y110657D01*
X183946Y115735D02*
X186485Y118274D01*
Y123353D01*
X183946Y125892D01*
X181407D01*
X178867Y123353D01*
X176328Y125892D01*
X173789D01*
X171250Y123353D01*
Y118274D01*
X173789Y115735D01*
X176328D01*
X178867Y118274D01*
X181407Y115735D01*
X183946D01*
X178867Y118274D02*
Y123353D01*
X221300Y398750D02*
X206065D01*
Y391133D01*
X208604Y388593D01*
X213682D01*
X216222Y391133D01*
Y398750D01*
Y393672D02*
X221300Y388593D01*
X218761Y383515D02*
X221300Y380976D01*
Y375897D01*
X218761Y373358D01*
X208604D01*
X206065Y375897D01*
Y380976D01*
X208604Y383515D01*
X211143D01*
X213682Y380976D01*
Y373358D01*
X277250Y100500D02*
X292485D01*
Y108118D01*
X289946Y110657D01*
X284867D01*
X282328Y108118D01*
Y100500D01*
Y105578D02*
X277250Y110657D01*
Y115735D02*
Y120813D01*
Y118274D01*
X292485D01*
X289946Y115735D01*
Y128431D02*
X292485Y130970D01*
Y136048D01*
X289946Y138588D01*
X279789D01*
X277250Y136048D01*
Y130970D01*
X279789Y128431D01*
X289946D01*
X234850Y100500D02*
X250085D01*
Y108118D01*
X247546Y110657D01*
X242467D01*
X239928Y108118D01*
Y100500D01*
Y105578D02*
X234850Y110657D01*
Y115735D02*
Y120813D01*
Y118274D01*
X250085D01*
X247546Y115735D01*
X234850Y128431D02*
Y133509D01*
Y130970D01*
X250085D01*
X247546Y128431D01*
X340750Y105900D02*
Y121135D01*
X333133D01*
X330593Y118596D01*
Y113518D01*
X333133Y110978D01*
X340750D01*
X335672D02*
X330593Y105900D01*
X325515D02*
X320437D01*
X322976D01*
Y121135D01*
X325515Y118596D01*
X302662Y105900D02*
X312819D01*
X302662Y116057D01*
Y118596D01*
X305201Y121135D01*
X310280D01*
X312819Y118596D01*
X192450Y100500D02*
X207685D01*
Y108118D01*
X205146Y110657D01*
X200068D01*
X197528Y108118D01*
Y100500D01*
Y105578D02*
X192450Y110657D01*
Y115735D02*
Y120813D01*
Y118274D01*
X207685D01*
X205146Y115735D01*
Y128431D02*
X207685Y130970D01*
Y136048D01*
X205146Y138588D01*
X202607D01*
X200068Y136048D01*
Y133509D01*
Y136048D01*
X197528Y138588D01*
X194989D01*
X192450Y136048D01*
Y130970D01*
X194989Y128431D01*
X256050Y100500D02*
X271285D01*
Y108118D01*
X268746Y110657D01*
X263668D01*
X261128Y108118D01*
Y100500D01*
Y105578D02*
X256050Y110657D01*
Y115735D02*
Y120813D01*
Y118274D01*
X271285D01*
X268746Y115735D01*
X256050Y136048D02*
X271285D01*
X263668Y128431D01*
Y138588D01*
X340750Y130000D02*
Y145235D01*
X333133D01*
X330593Y142696D01*
Y137617D01*
X333133Y135078D01*
X340750D01*
X335672D02*
X330593Y130000D01*
X325515D02*
X320437D01*
X322976D01*
Y145235D01*
X325515Y142696D01*
X302662Y145235D02*
X312819D01*
Y137617D01*
X307741Y140157D01*
X305201D01*
X302662Y137617D01*
Y132539D01*
X305201Y130000D01*
X310280D01*
X312819Y132539D01*
X340750Y81800D02*
Y97035D01*
X333133D01*
X330593Y94496D01*
Y89417D01*
X333133Y86878D01*
X340750D01*
X335672D02*
X330593Y81800D01*
X325515D02*
X320437D01*
X322976D01*
Y97035D01*
X325515Y94496D01*
X302662Y97035D02*
X307741Y94496D01*
X312819Y89417D01*
Y84339D01*
X310280Y81800D01*
X305201D01*
X302662Y84339D01*
Y86878D01*
X305201Y89417D01*
X312819D01*
X300200Y398750D02*
X284965D01*
Y391133D01*
X287504Y388593D01*
X292582D01*
X295122Y391133D01*
Y398750D01*
Y393672D02*
X300200Y388593D01*
Y383515D02*
Y378437D01*
Y380976D01*
X284965D01*
X287504Y383515D01*
X284965Y370819D02*
Y360662D01*
X287504D01*
X297661Y370819D01*
X300200D01*
X273900Y398750D02*
X258665D01*
Y391133D01*
X261204Y388593D01*
X266282D01*
X268822Y391133D01*
Y398750D01*
Y393672D02*
X273900Y388593D01*
Y383515D02*
Y378437D01*
Y380976D01*
X258665D01*
X261204Y383515D01*
Y370819D02*
X258665Y368280D01*
Y363201D01*
X261204Y360662D01*
X263743D01*
X266282Y363201D01*
X268822Y360662D01*
X271361D01*
X273900Y363201D01*
Y368280D01*
X271361Y370819D01*
X268822D01*
X266282Y368280D01*
X263743Y370819D01*
X261204D01*
X266282Y368280D02*
Y363201D01*
D29*
X339250Y195537D02*
X341000D01*
X305000D02*
X306750D01*
X305000Y175777D02*
X341000D01*
Y195537D01*
X306750D02*
X339250D01*
X305000Y175777D02*
Y195537D01*
X340003Y287240D02*
X341753D01*
X374253D02*
X376003D01*
X340003Y307000D02*
X376003D01*
X340003Y287240D02*
Y307000D01*
X341753Y287240D02*
X374253D01*
X376003D02*
Y307000D01*
X339250Y218300D02*
X341000D01*
X305000D02*
X306750D01*
X305000Y198540D02*
X341000D01*
Y218300D01*
X306750D02*
X339250D01*
X305000Y198540D02*
Y218300D01*
X376250Y171760D02*
X378000D01*
X342000D02*
X343750D01*
X342000Y152000D02*
X378000D01*
Y171760D01*
X343750D02*
X376250D01*
X342000Y152000D02*
Y171760D01*
X205250Y219997D02*
X207000D01*
X171000D02*
X172750D01*
X171000Y200237D02*
X207000D01*
Y219997D01*
X172750D02*
X205250D01*
X171000Y200237D02*
Y219997D01*
X178000Y350000D02*
X202000D01*
X178000Y306000D02*
Y350000D01*
Y306000D02*
X202000D01*
Y350000D01*
X339250Y241760D02*
X341000D01*
X305000D02*
X306750D01*
X305000Y222000D02*
X341000D01*
Y241760D01*
X306750D02*
X339250D01*
X305000Y222000D02*
Y241760D01*
X339250Y330760D02*
X341000D01*
X305000D02*
X306750D01*
X305000Y311000D02*
X341000D01*
Y330760D01*
X306750D02*
X339250D01*
X305000Y311000D02*
Y330760D01*
X345000Y178000D02*
X373000D01*
X345000Y194000D02*
X373000D01*
X345000Y178000D02*
Y194000D01*
X373000Y178000D02*
Y194000D01*
X345000Y215000D02*
X373000D01*
X345000Y199000D02*
X373000D01*
Y215000D01*
X345000Y199000D02*
Y215000D01*
X175000Y246003D02*
Y266003D01*
Y246003D02*
X207000D01*
Y266003D01*
X175000D02*
X207000D01*
Y270000D02*
Y290000D01*
X175000D02*
X207000D01*
X175000Y270000D02*
Y290000D01*
Y270000D02*
X207000D01*
X175000Y223000D02*
Y243000D01*
Y223000D02*
X207000D01*
Y243000D01*
X175000D02*
X207000D01*
X210992Y156000D02*
X230992D01*
Y188000D01*
X210992D02*
X230992D01*
X210992Y156000D02*
Y188000D01*
X228005Y338000D02*
X248005D01*
X228005Y306000D02*
Y338000D01*
Y306000D02*
X248005D01*
Y338000D01*
X164000Y188000D02*
X184000D01*
X164000Y156000D02*
Y188000D01*
Y156000D02*
X184000D01*
Y188000D01*
X205002Y306000D02*
X225002D01*
Y338000D01*
X205002D02*
X225002D01*
X205002Y306000D02*
Y338000D01*
X276003Y187775D02*
X296003D01*
X276003Y155775D02*
Y187775D01*
Y155775D02*
X296003D01*
Y187775D01*
X249995Y155775D02*
Y183775D01*
X233995Y155775D02*
Y183775D01*
Y155775D02*
X249995D01*
X233995Y183775D02*
X249995D01*
X305000Y264000D02*
Y284000D01*
Y264000D02*
X337000D01*
Y284000D01*
X305000D02*
X337000D01*
X187990Y188000D02*
X207990D01*
X187990Y156000D02*
Y188000D01*
Y156000D02*
X207990D01*
Y188000D01*
X252997Y187775D02*
X272997D01*
X252997Y155775D02*
Y187775D01*
Y155775D02*
X272997D01*
Y187775D01*
X305000Y287003D02*
Y307003D01*
Y287003D02*
X337000D01*
Y307003D01*
X305000D02*
X337000D01*
X305000Y244762D02*
X333000D01*
X305000Y260763D02*
X333000D01*
X305000Y244762D02*
Y260763D01*
X333000Y244762D02*
Y260763D01*
X276930Y307000D02*
X296930D01*
Y339000D01*
X276930D02*
X296930D01*
X276930Y307000D02*
Y339000D01*
X252000Y307000D02*
X272000D01*
Y339000D01*
X252000D02*
X272000D01*
X252000Y307000D02*
Y339000D01*
X281000Y263000D02*
Y266000D01*
Y216000D02*
Y221000D01*
X276000Y216000D02*
X281000D01*
X229000D02*
X234000D01*
X229000D02*
Y221000D01*
Y263000D02*
Y268000D01*
X234000D01*
X276000D02*
X279000D01*
X281000Y266000D01*
M02*
