G04 Layer_Physical_Order=4*
G04 Layer_Color=16440176*
%FSLAX44Y44*%
%MOMM*%
G71*
G01*
G75*
%ADD14C,0.6000*%
%ADD15C,0.2032*%
%ADD17C,0.1500*%
%ADD18C,0.3000*%
%ADD19C,0.5000*%
%ADD20C,0.4000*%
%ADD23C,0.4500*%
%ADD29C,0.2000*%
D14*
X342040Y185250D02*
Y208540D01*
X334750Y177960D02*
X342040Y185250D01*
X334750Y167250D02*
Y177960D01*
X286250Y210000D02*
X340580D01*
X262472Y147528D02*
Y186222D01*
X286250Y210000D01*
X257500Y291000D02*
Y295750D01*
X262250Y300500D01*
Y349250D01*
D15*
X253495Y130750D02*
X283479Y160734D01*
X203000Y130750D02*
X253495D01*
X108250Y36000D02*
X203000Y130750D01*
X283479Y160734D02*
X338474D01*
X347556Y169816D01*
Y219561D01*
X350998Y223002D01*
X242500Y275750D02*
Y291500D01*
D17*
X276000Y283000D02*
X345250D01*
D18*
X180500Y278250D02*
Y389250D01*
X165500Y404250D02*
X180500Y389250D01*
X165500Y404250D02*
Y449250D01*
X169250Y453000D02*
X177500D01*
X165500Y449250D02*
X169250Y453000D01*
X180500Y278250D02*
X189500Y269250D01*
X212250D01*
X222000Y259500D01*
D19*
X173750Y415250D02*
X231000Y358000D01*
Y303000D02*
Y358000D01*
Y303000D02*
X242500Y291500D01*
D20*
X198002Y145997D02*
X203500Y140500D01*
X237750D01*
D23*
X262250Y349250D02*
D03*
X334750Y167250D02*
D03*
X257500Y291000D02*
D03*
X237750Y140500D02*
D03*
X350998Y223002D02*
D03*
X198002Y145997D02*
D03*
X263002Y146997D02*
D03*
X276000Y283000D02*
D03*
X286250Y210000D02*
D03*
X108250Y36000D02*
D03*
X173750Y415250D02*
D03*
X177500Y453000D02*
D03*
X242500Y275750D02*
D03*
X222000Y254500D02*
D03*
X345750Y283500D02*
D03*
X342790Y208540D02*
D03*
D29*
X222000Y254500D02*
Y259500D01*
M02*
