G04 Layer_Physical_Order=3*
G04 Layer_Color=36540*
%FSLAX44Y44*%
%MOMM*%
G71*
G01*
G75*
%ADD14C,0.6000*%
%ADD17C,0.1500*%
%ADD18C,0.3000*%
%ADD19C,0.5000*%
%ADD20C,0.4000*%
%ADD23C,0.4500*%
G36*
X409000Y269750D02*
X409000Y136750D01*
X409000Y136750D01*
X365057Y136750D01*
X364634Y137384D01*
X364634Y137384D01*
X357884Y144134D01*
X356561Y145018D01*
X355000Y145328D01*
X355000Y145328D01*
X321689D01*
X290078Y176939D01*
Y191750D01*
X289768Y193311D01*
X288884Y194634D01*
X287561Y195518D01*
X286000Y195828D01*
X284439Y195518D01*
X283116Y194634D01*
X282232Y193311D01*
X281922Y191750D01*
Y175250D01*
X281922Y175250D01*
X282232Y173689D01*
X283116Y172366D01*
X317116Y138366D01*
X317116Y138366D01*
X317634Y138020D01*
X317249Y136750D01*
X250581D01*
Y147997D01*
X250581Y147998D01*
X250270Y149558D01*
X249386Y150881D01*
X249386Y150881D01*
X243828Y156439D01*
Y200500D01*
X243518Y202061D01*
X242634Y203384D01*
X241311Y204268D01*
X239750Y204578D01*
X238189Y204268D01*
X236866Y203384D01*
X235982Y202061D01*
X235672Y200500D01*
Y154750D01*
X235672Y154750D01*
X235982Y153189D01*
X236866Y151866D01*
X242424Y146308D01*
Y136750D01*
X234105D01*
X233060Y137999D01*
X233059Y138020D01*
Y206250D01*
X233059Y206250D01*
X232826Y207421D01*
X232163Y208413D01*
X232163Y208413D01*
X224809Y215767D01*
Y227328D01*
X225282Y228037D01*
X225573Y229500D01*
X225282Y230963D01*
X224454Y232204D01*
X223213Y233032D01*
X221750Y233323D01*
X220287Y233032D01*
X219046Y232204D01*
X218218Y230963D01*
X217927Y229500D01*
X218218Y228037D01*
X218691Y227328D01*
Y214847D01*
X218617Y214713D01*
X217996Y214135D01*
X217519Y213884D01*
X216631Y214061D01*
X215168Y213770D01*
X213928Y212941D01*
X213099Y211701D01*
X212808Y210237D01*
X213063Y208956D01*
Y153109D01*
X196703Y136750D01*
X106000D01*
X106000Y223500D01*
Y357250D01*
X135732D01*
X143616Y349366D01*
X143616Y349366D01*
X144939Y348482D01*
X146500Y348172D01*
X157500D01*
X159061Y348482D01*
X160384Y349366D01*
X161268Y350689D01*
X161578Y352250D01*
X161268Y353811D01*
X160384Y355134D01*
X159117Y355980D01*
X159100Y356075D01*
X159514Y357250D01*
X233409D01*
Y349002D01*
X233759Y347247D01*
X234753Y345758D01*
X236242Y344764D01*
X237997Y344414D01*
X239753Y344764D01*
X241242Y345758D01*
X242236Y347247D01*
X242586Y349002D01*
Y357250D01*
X409000D01*
Y269750D01*
D02*
G37*
G36*
X226941Y204983D02*
Y139267D01*
X224424Y136750D01*
X208456D01*
X207970Y137923D01*
X219155Y149108D01*
X219928Y150266D01*
X220200Y151631D01*
Y208956D01*
X220361Y209767D01*
X221602Y210266D01*
X221657Y210267D01*
X226941Y204983D01*
D02*
G37*
%LPC*%
G36*
X262250Y353073D02*
X260787Y352782D01*
X259546Y351954D01*
X258718Y350713D01*
X258427Y349250D01*
X258718Y347787D01*
X259546Y346546D01*
X260787Y345718D01*
X262250Y345427D01*
X263713Y345718D01*
X264954Y346546D01*
X265782Y347787D01*
X266073Y349250D01*
X265782Y350713D01*
X264954Y351954D01*
X263713Y352782D01*
X262250Y353073D01*
D02*
G37*
G36*
X336500Y339823D02*
X335037Y339532D01*
X333796Y338704D01*
X333052Y337590D01*
X332375Y337522D01*
X331698Y337590D01*
X330954Y338704D01*
X329713Y339532D01*
X328250Y339823D01*
X326787Y339532D01*
X325546Y338704D01*
X324718Y337463D01*
X324427Y336000D01*
X324718Y334537D01*
X325546Y333296D01*
X326787Y332468D01*
X328250Y332177D01*
X329713Y332468D01*
X330954Y333296D01*
X331698Y334410D01*
X332375Y334478D01*
X333052Y334410D01*
X333796Y333296D01*
X335037Y332468D01*
X336500Y332177D01*
X337963Y332468D01*
X339204Y333296D01*
X340032Y334537D01*
X340323Y336000D01*
X340032Y337463D01*
X339204Y338704D01*
X337963Y339532D01*
X336500Y339823D01*
D02*
G37*
G36*
X354500Y315823D02*
X353037Y315532D01*
X351796Y314704D01*
X351052Y313590D01*
X350375Y313522D01*
X349698Y313590D01*
X348954Y314704D01*
X347713Y315532D01*
X346250Y315823D01*
X344787Y315532D01*
X343546Y314704D01*
X342718Y313463D01*
X342426Y312000D01*
X342718Y310537D01*
X343546Y309296D01*
X344787Y308468D01*
X346250Y308176D01*
X347713Y308468D01*
X348954Y309296D01*
X349698Y310410D01*
X350375Y310478D01*
X351052Y310410D01*
X351796Y309296D01*
X353037Y308468D01*
X354500Y308176D01*
X355963Y308468D01*
X357204Y309296D01*
X358032Y310537D01*
X358323Y312000D01*
X358032Y313463D01*
X357204Y314704D01*
X355963Y315532D01*
X354500Y315823D01*
D02*
G37*
G36*
X202750Y303573D02*
X201287Y303282D01*
X200046Y302454D01*
X199218Y301213D01*
X198927Y299750D01*
X199218Y298287D01*
X200046Y297046D01*
X201287Y296218D01*
X202750Y295927D01*
X204213Y296218D01*
X205454Y297046D01*
X206282Y298287D01*
X206573Y299750D01*
X206282Y301213D01*
X205454Y302454D01*
X204213Y303282D01*
X202750Y303573D01*
D02*
G37*
G36*
X257500Y294823D02*
X256037Y294532D01*
X254796Y293704D01*
X253968Y292463D01*
X253677Y291000D01*
X253968Y289537D01*
X254796Y288296D01*
X256037Y287468D01*
X257500Y287177D01*
X258963Y287468D01*
X260204Y288296D01*
X261032Y289537D01*
X261323Y291000D01*
X261032Y292463D01*
X260204Y293704D01*
X258963Y294532D01*
X257500Y294823D01*
D02*
G37*
G36*
X247500Y287823D02*
X246037Y287532D01*
X244796Y286704D01*
X243968Y285463D01*
X243677Y284000D01*
X243968Y282537D01*
X244796Y281296D01*
X246037Y280468D01*
X247500Y280177D01*
X248963Y280468D01*
X250204Y281296D01*
X251032Y282537D01*
X251323Y284000D01*
X251032Y285463D01*
X250204Y286704D01*
X248963Y287532D01*
X247500Y287823D01*
D02*
G37*
G36*
X345750Y287323D02*
X344287Y287032D01*
X343046Y286204D01*
X342218Y284963D01*
X341926Y283500D01*
X342218Y282037D01*
X343046Y280796D01*
X344287Y279968D01*
X345750Y279677D01*
X347213Y279968D01*
X348454Y280796D01*
X349282Y282037D01*
X349573Y283500D01*
X349282Y284963D01*
X348454Y286204D01*
X347213Y287032D01*
X345750Y287323D01*
D02*
G37*
G36*
X276000Y286823D02*
X274537Y286532D01*
X273296Y285704D01*
X272468Y284463D01*
X272177Y283000D01*
X272468Y281537D01*
X273296Y280296D01*
X274537Y279468D01*
X276000Y279177D01*
X277463Y279468D01*
X278704Y280296D01*
X279532Y281537D01*
X279823Y283000D01*
X279532Y284463D01*
X278704Y285704D01*
X277463Y286532D01*
X276000Y286823D01*
D02*
G37*
G36*
X170998Y346821D02*
X169534Y346530D01*
X168294Y345701D01*
X167465Y344461D01*
X167174Y342998D01*
X167465Y341534D01*
X167939Y340826D01*
Y299764D01*
X158087Y289913D01*
X157424Y288920D01*
X157191Y287750D01*
X157191Y287750D01*
Y281422D01*
X156718Y280713D01*
X156427Y279250D01*
X156718Y277787D01*
X157546Y276546D01*
X158787Y275718D01*
X160250Y275427D01*
X161713Y275718D01*
X162954Y276546D01*
X163782Y277787D01*
X164073Y279250D01*
X163782Y280713D01*
X163309Y281422D01*
Y286483D01*
X173160Y296334D01*
X173160Y296335D01*
X173823Y297327D01*
X174056Y298498D01*
X174056Y298498D01*
Y340826D01*
X174530Y341534D01*
X174821Y342998D01*
X174530Y344461D01*
X173701Y345701D01*
X172461Y346530D01*
X170998Y346821D01*
D02*
G37*
G36*
X242500Y279573D02*
X241037Y279282D01*
X239796Y278454D01*
X238968Y277213D01*
X238677Y275750D01*
X238968Y274287D01*
X239796Y273046D01*
X241037Y272218D01*
X242500Y271927D01*
X243963Y272218D01*
X245204Y273046D01*
X246032Y274287D01*
X246323Y275750D01*
X246032Y277213D01*
X245204Y278454D01*
X243963Y279282D01*
X242500Y279573D01*
D02*
G37*
G36*
X262500Y278323D02*
X261037Y278032D01*
X259796Y277204D01*
X258968Y275963D01*
X258677Y274500D01*
X258968Y273037D01*
X259796Y271796D01*
X261037Y270968D01*
X262500Y270677D01*
X263963Y270968D01*
X265204Y271796D01*
X266032Y273037D01*
X266323Y274500D01*
X266032Y275963D01*
X265204Y277204D01*
X263963Y278032D01*
X262500Y278323D01*
D02*
G37*
G36*
X252500D02*
X251037Y278032D01*
X249796Y277204D01*
X248968Y275963D01*
X248677Y274500D01*
X248968Y273037D01*
X249796Y271796D01*
X251037Y270968D01*
X252500Y270677D01*
X253963Y270968D01*
X255204Y271796D01*
X256032Y273037D01*
X256323Y274500D01*
X256032Y275963D01*
X255204Y277204D01*
X253963Y278032D01*
X252500Y278323D01*
D02*
G37*
G36*
X345750Y255573D02*
X344287Y255282D01*
X343046Y254454D01*
X342218Y253213D01*
X341927Y251750D01*
X342218Y250287D01*
X343046Y249046D01*
X344287Y248218D01*
X345750Y247927D01*
X347213Y248218D01*
X348454Y249046D01*
X349282Y250287D01*
X349573Y251750D01*
X349282Y253213D01*
X348454Y254454D01*
X347213Y255282D01*
X345750Y255573D01*
D02*
G37*
G36*
X245250D02*
X243787Y255282D01*
X242546Y254454D01*
X241718Y253213D01*
X241427Y251750D01*
X241718Y250287D01*
X242546Y249046D01*
X243787Y248218D01*
X245250Y247927D01*
X246713Y248218D01*
X247953Y249046D01*
X248782Y250287D01*
X249073Y251750D01*
X248782Y253213D01*
X247953Y254454D01*
X246713Y255282D01*
X245250Y255573D01*
D02*
G37*
G36*
X264250Y255074D02*
X262787Y254782D01*
X261546Y253954D01*
X260718Y252713D01*
X260427Y251250D01*
X260718Y249787D01*
X261546Y248547D01*
X262787Y247718D01*
X264250Y247427D01*
X265713Y247718D01*
X266954Y248547D01*
X267782Y249787D01*
X268074Y251250D01*
X267782Y252713D01*
X266954Y253954D01*
X265713Y254782D01*
X264250Y255074D01*
D02*
G37*
G36*
X148250Y246573D02*
X146787Y246282D01*
X145546Y245454D01*
X144718Y244213D01*
X144427Y242750D01*
X144718Y241287D01*
X145546Y240046D01*
X146787Y239218D01*
X148250Y238927D01*
X149713Y239218D01*
X150954Y240046D01*
X151782Y241287D01*
X152073Y242750D01*
X151782Y244213D01*
X150954Y245454D01*
X149713Y246282D01*
X148250Y246573D01*
D02*
G37*
G36*
X255000Y245823D02*
X253537Y245532D01*
X252296Y244704D01*
X251468Y243463D01*
X251176Y242000D01*
X251468Y240537D01*
X252296Y239296D01*
X253537Y238468D01*
X255000Y238176D01*
X256463Y238468D01*
X257703Y239296D01*
X258532Y240537D01*
X258823Y242000D01*
X258532Y243463D01*
X257703Y244704D01*
X256463Y245532D01*
X255000Y245823D01*
D02*
G37*
G36*
X156000Y237323D02*
X154537Y237032D01*
X153296Y236204D01*
X152468Y234963D01*
X152177Y233500D01*
X152468Y232037D01*
X153296Y230796D01*
X154537Y229968D01*
X156000Y229677D01*
X157463Y229968D01*
X158704Y230796D01*
X159532Y232037D01*
X159823Y233500D01*
X159532Y234963D01*
X158704Y236204D01*
X157463Y237032D01*
X156000Y237323D01*
D02*
G37*
G36*
X264000Y237073D02*
X262537Y236782D01*
X261296Y235954D01*
X260468Y234713D01*
X260177Y233250D01*
X260468Y231787D01*
X261296Y230546D01*
X262537Y229718D01*
X264000Y229427D01*
X265463Y229718D01*
X266704Y230546D01*
X267532Y231787D01*
X267823Y233250D01*
X267532Y234713D01*
X266704Y235954D01*
X265463Y236782D01*
X264000Y237073D01*
D02*
G37*
G36*
X245750Y236823D02*
X244287Y236532D01*
X243046Y235704D01*
X242218Y234463D01*
X241927Y233000D01*
X242218Y231537D01*
X243046Y230296D01*
X244287Y229468D01*
X245750Y229177D01*
X247213Y229468D01*
X248454Y230296D01*
X249282Y231537D01*
X249573Y233000D01*
X249282Y234463D01*
X248454Y235704D01*
X247213Y236532D01*
X245750Y236823D01*
D02*
G37*
G36*
X343500Y232073D02*
X342037Y231782D01*
X340796Y230954D01*
X339968Y229713D01*
X339677Y228250D01*
X339968Y226787D01*
X340796Y225546D01*
X342037Y224718D01*
X343500Y224427D01*
X344963Y224718D01*
X346204Y225546D01*
X347032Y226787D01*
X347323Y228250D01*
X347032Y229713D01*
X346204Y230954D01*
X344963Y231782D01*
X343500Y232073D01*
D02*
G37*
G36*
X273500Y267544D02*
X226386D01*
X225508Y267369D01*
X224764Y266872D01*
X215878Y257986D01*
X215380Y257242D01*
X215206Y256364D01*
Y252636D01*
X215206Y252636D01*
Y243448D01*
X214750Y243073D01*
X213287Y242782D01*
X212046Y241954D01*
X211218Y240713D01*
X210927Y239250D01*
X211218Y237787D01*
X212046Y236546D01*
X213287Y235718D01*
X214750Y235427D01*
X216213Y235718D01*
X217454Y236546D01*
X218282Y237787D01*
X218573Y239250D01*
X218477Y239733D01*
X219122Y240378D01*
X219619Y241122D01*
X219794Y242000D01*
Y250053D01*
X221064Y250863D01*
X222000Y250677D01*
X223463Y250968D01*
X224704Y251796D01*
X225532Y253037D01*
X225823Y254500D01*
X225532Y255963D01*
X224704Y257204D01*
X223910Y257734D01*
X223585Y259205D01*
X227336Y262956D01*
X272550D01*
X294378Y241128D01*
X295122Y240631D01*
X296000Y240456D01*
X344810D01*
X345451Y239186D01*
X344968Y238463D01*
X344677Y237000D01*
X344968Y235537D01*
X345796Y234296D01*
X347037Y233468D01*
X348500Y233177D01*
X349963Y233468D01*
X351204Y234296D01*
X352032Y235537D01*
X352323Y237000D01*
X352032Y238463D01*
X351549Y239186D01*
X352189Y240456D01*
X358050D01*
X364703Y233802D01*
Y225980D01*
X364294Y225706D01*
X363465Y224466D01*
X363174Y223002D01*
X363465Y221539D01*
X364294Y220299D01*
X365534Y219470D01*
X366997Y219179D01*
X368461Y219470D01*
X369701Y220299D01*
X370530Y221539D01*
X370821Y223002D01*
X370530Y224466D01*
X369701Y225706D01*
X369291Y225980D01*
Y234753D01*
X369117Y235630D01*
X368620Y236375D01*
X360622Y244372D01*
X359878Y244869D01*
X359000Y245044D01*
X296950D01*
X275122Y266872D01*
X274378Y267369D01*
X273500Y267544D01*
D02*
G37*
G36*
X350998Y226826D02*
X349534Y226535D01*
X348294Y225706D01*
X347465Y224466D01*
X347174Y223002D01*
X347465Y221539D01*
X348294Y220299D01*
X349534Y219470D01*
X350998Y219179D01*
X352461Y219470D01*
X353701Y220299D01*
X354530Y221539D01*
X354821Y223002D01*
X354530Y224466D01*
X353701Y225706D01*
X352461Y226535D01*
X350998Y226826D01*
D02*
G37*
G36*
X286250Y213823D02*
X284787Y213532D01*
X283546Y212704D01*
X282718Y211463D01*
X282427Y210000D01*
X282718Y208537D01*
X283546Y207296D01*
X284787Y206468D01*
X286250Y206177D01*
X287713Y206468D01*
X288954Y207296D01*
X289782Y208537D01*
X290073Y210000D01*
X289782Y211463D01*
X288954Y212704D01*
X287713Y213532D01*
X286250Y213823D01*
D02*
G37*
G36*
X252500Y213573D02*
X251037Y213282D01*
X249796Y212454D01*
X248968Y211213D01*
X248677Y209750D01*
X248968Y208287D01*
X249796Y207046D01*
X251037Y206218D01*
X252500Y205927D01*
X253963Y206218D01*
X255204Y207046D01*
X256032Y208287D01*
X256323Y209750D01*
X256032Y211213D01*
X255204Y212454D01*
X253963Y213282D01*
X252500Y213573D01*
D02*
G37*
G36*
X342790Y212363D02*
X341327Y212072D01*
X340086Y211244D01*
X339258Y210003D01*
X338967Y208540D01*
X339258Y207077D01*
X340086Y205836D01*
X341327Y205008D01*
X342790Y204717D01*
X344253Y205008D01*
X345494Y205836D01*
X346322Y207077D01*
X346613Y208540D01*
X346322Y210003D01*
X345494Y211244D01*
X344253Y212072D01*
X342790Y212363D01*
D02*
G37*
G36*
X148250Y193573D02*
X146787Y193282D01*
X145546Y192454D01*
X144718Y191213D01*
X144427Y189750D01*
X144718Y188287D01*
X145546Y187046D01*
X146787Y186218D01*
X148250Y185927D01*
X149713Y186218D01*
X150954Y187046D01*
X151782Y188287D01*
X152073Y189750D01*
X151782Y191213D01*
X150954Y192454D01*
X149713Y193282D01*
X148250Y193573D01*
D02*
G37*
G36*
X334750Y171073D02*
X333287Y170782D01*
X332046Y169954D01*
X331218Y168713D01*
X330927Y167250D01*
X331218Y165787D01*
X332046Y164546D01*
X333287Y163718D01*
X334750Y163427D01*
X336213Y163718D01*
X337454Y164546D01*
X338282Y165787D01*
X338573Y167250D01*
X338282Y168713D01*
X337454Y169954D01*
X336213Y170782D01*
X334750Y171073D01*
D02*
G37*
G36*
X263002Y150821D02*
X261539Y150530D01*
X260299Y149701D01*
X259470Y148461D01*
X259179Y146997D01*
X259470Y145534D01*
X260299Y144294D01*
X261539Y143465D01*
X263002Y143174D01*
X264466Y143465D01*
X265706Y144294D01*
X266535Y145534D01*
X266826Y146997D01*
X266535Y148461D01*
X265706Y149701D01*
X264466Y150530D01*
X263002Y150821D01*
D02*
G37*
%LPD*%
D14*
X165500Y377750D02*
X232500D01*
X237997Y372253D01*
Y349002D02*
Y372253D01*
D17*
X215000Y348750D02*
Y349000D01*
X273500Y265250D02*
X296000Y242750D01*
X226386Y265250D02*
X273500D01*
X217500Y256364D02*
X226386Y265250D01*
X296000Y242750D02*
X359000D01*
X366997Y234753D01*
Y223002D02*
Y234753D01*
X214750Y239250D02*
X217500Y242000D01*
X217500Y252636D02*
Y256364D01*
Y252636D02*
X217500Y252636D01*
Y242000D02*
Y252636D01*
D18*
X214750Y269000D02*
X279750D01*
X283750Y265000D01*
X293000D01*
X221750Y214500D02*
Y229500D01*
X230000Y138000D02*
Y206250D01*
X163000Y114000D02*
X206000D01*
X230000Y138000D01*
X221750Y214500D02*
X230000Y206250D01*
X160250Y279250D02*
Y287750D01*
X170998Y298498D01*
Y342998D01*
D19*
X120000Y441000D02*
X135750Y425250D01*
Y363000D02*
Y425250D01*
Y363000D02*
X146500Y352250D01*
X157500D01*
X246502Y94502D02*
Y147998D01*
X239750Y154750D02*
X246502Y147998D01*
X239750Y154750D02*
Y200500D01*
X198002Y145997D02*
Y242008D01*
X211998Y256003D01*
Y266248D02*
X214750Y269000D01*
X211998Y256003D02*
Y266248D01*
X214750Y269000D02*
Y348750D01*
X286000Y175250D02*
Y191750D01*
X361750Y103250D02*
Y134500D01*
X355000Y141250D02*
X361750Y134500D01*
X320000Y141250D02*
X355000D01*
X286000Y175250D02*
X320000Y141250D01*
X93250Y441000D02*
X120000D01*
X218750Y66750D02*
X246502Y94502D01*
X177750Y66750D02*
X218750D01*
D20*
X216631Y151631D02*
Y210237D01*
X192250Y127250D02*
X216631Y151631D01*
X101500Y127250D02*
X192250D01*
X94450Y120200D02*
X101500Y127250D01*
X94450Y105050D02*
Y120200D01*
D23*
X237750Y140500D02*
D03*
X165500Y377750D02*
D03*
X160250Y279250D02*
D03*
X361750Y103250D02*
D03*
X157500Y352250D02*
D03*
X239750Y200500D02*
D03*
X215000Y349000D02*
D03*
X237997Y349002D02*
D03*
X366997Y223002D02*
D03*
X198002Y145997D02*
D03*
X170998Y342998D02*
D03*
X216631Y210237D02*
D03*
X293000Y265000D02*
D03*
X221750Y229500D02*
D03*
X211998Y256003D02*
D03*
X214750Y239250D02*
D03*
X94450Y105050D02*
D03*
X286000Y191750D02*
D03*
X177750Y66750D02*
D03*
X93250Y441000D02*
D03*
X163000Y114000D02*
D03*
M02*
