G04 Layer_Color=8388736*
%FSLAX44Y44*%
%MOMM*%
G71*
G01*
G75*
%ADD18C,0.3000*%
%ADD41R,1.1032X2.7032*%
%ADD42R,2.4032X1.0032*%
%ADD43R,4.0532X5.7032*%
%ADD44R,1.3972X0.7622*%
%ADD45C,4.2032*%
%ADD46C,0.6532*%
D18*
X21765Y22000D02*
X37000D01*
Y29618D01*
X34461Y32157D01*
X24304D01*
X21765Y29618D01*
Y22000D01*
X37000Y37235D02*
X26843D01*
X21765Y42313D01*
X26843Y47392D01*
X37000D01*
X29383D01*
Y37235D01*
X34461Y62627D02*
X24304D01*
X21765Y60088D01*
Y55009D01*
X24304Y52470D01*
X34461D01*
X37000Y55009D01*
Y60088D01*
X31922Y57548D02*
X37000Y62627D01*
Y60088D02*
X34461Y62627D01*
X24304Y77862D02*
X21765Y75323D01*
Y70244D01*
X24304Y67705D01*
X26843D01*
X29383Y70244D01*
Y75323D01*
X31922Y77862D01*
X34461D01*
X37000Y75323D01*
Y70244D01*
X34461Y67705D01*
X26843Y82940D02*
X34461D01*
X37000Y85479D01*
Y93097D01*
X39539D01*
X42078Y90558D01*
Y88019D01*
X37000Y93097D02*
X26843D01*
X37000Y98175D02*
Y105793D01*
X34461Y108332D01*
X31922Y105793D01*
Y100715D01*
X29383Y98175D01*
X26843Y100715D01*
Y108332D01*
D41*
X122500Y34000D02*
D03*
X153500D02*
D03*
X150500Y379000D02*
D03*
X119500D02*
D03*
D42*
X383000Y103000D02*
D03*
Y81000D02*
D03*
X380000Y415000D02*
D03*
Y437000D02*
D03*
D43*
X314750Y72000D02*
D03*
X215250D02*
D03*
X213250Y429000D02*
D03*
X312750D02*
D03*
D44*
X112725Y105050D02*
D03*
Y92350D02*
D03*
Y79650D02*
D03*
Y66950D02*
D03*
X163275Y105050D02*
D03*
Y92350D02*
D03*
Y79650D02*
D03*
Y66950D02*
D03*
X109725Y453050D02*
D03*
Y440350D02*
D03*
Y427650D02*
D03*
Y414950D02*
D03*
X160275Y453050D02*
D03*
Y440350D02*
D03*
Y427650D02*
D03*
Y414950D02*
D03*
D45*
X450000Y100000D02*
D03*
Y200000D02*
D03*
Y300000D02*
D03*
Y400000D02*
D03*
X50000Y300000D02*
D03*
Y200000D02*
D03*
D46*
X175000Y85250D02*
D03*
X348500Y237000D02*
D03*
X343500Y228250D02*
D03*
X346250Y312000D02*
D03*
X354500D02*
D03*
X336500Y336000D02*
D03*
X328250D02*
D03*
X262250Y349250D02*
D03*
X172000Y45750D02*
D03*
X171500Y23750D02*
D03*
X334750Y167250D02*
D03*
X389000Y68750D02*
D03*
X374500D02*
D03*
X367250Y68500D02*
D03*
X396250Y69000D02*
D03*
X378750Y452500D02*
D03*
X394000Y452750D02*
D03*
X365000Y452250D02*
D03*
X165250Y392250D02*
D03*
X164750Y364750D02*
D03*
X173750Y441500D02*
D03*
X174000Y428250D02*
D03*
X148250Y242750D02*
D03*
X156000Y233500D02*
D03*
X148250Y189750D02*
D03*
X245750Y233000D02*
D03*
X255000Y242000D02*
D03*
X264000Y233250D02*
D03*
X264250Y251250D02*
D03*
X257500Y291000D02*
D03*
X252500Y274500D02*
D03*
X237750Y140500D02*
D03*
X245250Y251750D02*
D03*
X165500Y377750D02*
D03*
X160250Y279250D02*
D03*
X361750Y103250D02*
D03*
X157500Y352250D02*
D03*
X345750Y251750D02*
D03*
X252500Y209750D02*
D03*
X239750Y200500D02*
D03*
X215000Y349000D02*
D03*
X237997Y349002D02*
D03*
X350998Y223002D02*
D03*
X366997D02*
D03*
X198002Y145997D02*
D03*
X170998Y342998D02*
D03*
X263002Y146997D02*
D03*
X216631Y210237D02*
D03*
X247500Y284000D02*
D03*
X276000Y283000D02*
D03*
X293000Y265000D02*
D03*
X286250Y210000D02*
D03*
X262500Y274500D02*
D03*
X221750Y229500D02*
D03*
X211998Y256003D02*
D03*
X214750Y239250D02*
D03*
X94450Y105050D02*
D03*
X286000Y191750D02*
D03*
X177750Y66750D02*
D03*
X108250Y36000D02*
D03*
X173750Y415250D02*
D03*
X93250Y441000D02*
D03*
X177500Y453000D02*
D03*
X242500Y275750D02*
D03*
X222000Y254500D02*
D03*
X345750Y283500D02*
D03*
X342790Y208540D02*
D03*
X163000Y114000D02*
D03*
X202750Y299750D02*
D03*
M02*
