%FSLAX44Y44*%
%MOMM*%
G71*
G01*
G75*
G04 Layer_Color=65535*
%ADD10R,0.9000X0.8000*%
%ADD11R,0.9000X0.7000*%
%ADD12R,0.7000X0.9000*%
%ADD13R,0.8000X0.9000*%
%ADD14R,1.5000X1.5000*%
%ADD15C,0.2540*%
%ADD16C,1.5240*%
%ADD17C,1.5000*%
%ADD18C,0.2000*%
D15*
X281940Y158750D02*
G03*
X297180Y158750I7620J0D01*
G01*
X269540Y146050D02*
G03*
X269540Y146050I-2840J0D01*
G01*
X297180Y158750D02*
X317500D01*
X259080D02*
X281940D01*
X259080Y55880D02*
X317500D01*
Y158750D01*
X259080Y55880D02*
Y158750D01*
X244214Y182875D02*
X249292D01*
X246753D01*
Y167640D01*
X244214D01*
X249292D01*
X267067Y180336D02*
X264527Y182875D01*
X259449D01*
X256910Y180336D01*
Y170179D01*
X259449Y167640D01*
X264527D01*
X267067Y170179D01*
X272145Y180336D02*
X274684Y182875D01*
X279762D01*
X282302Y180336D01*
Y177797D01*
X277223Y172718D01*
Y170179D02*
Y167640D01*
X396614Y143256D02*
Y158491D01*
X404232D01*
X406771Y155952D01*
Y150873D01*
X404232Y148334D01*
X396614D01*
X411849Y143256D02*
X416927D01*
X414388D01*
Y158491D01*
X411849Y155952D01*
X381371Y168652D02*
X378832Y171191D01*
X373753D01*
X371214Y168652D01*
Y158495D01*
X373753Y155956D01*
X378832D01*
X381371Y158495D01*
X386449Y155956D02*
X391527D01*
X388988D01*
Y171191D01*
X386449Y168652D01*
X353434Y155956D02*
Y171191D01*
X361052D01*
X363591Y168652D01*
Y163573D01*
X361052Y161034D01*
X353434D01*
X358512D02*
X363591Y155956D01*
X368669D02*
X373747D01*
X371208D01*
Y171191D01*
X368669Y168652D01*
X200787Y106299D02*
Y121534D01*
X208405D01*
X210944Y118995D01*
Y113917D01*
X208405Y111377D01*
X200787D01*
X205865D02*
X210944Y106299D01*
X216022Y118995D02*
X218561Y121534D01*
X223640D01*
X226179Y118995D01*
Y116456D01*
X223640Y113917D01*
X221100D01*
X223640D01*
X226179Y111377D01*
Y108838D01*
X223640Y106299D01*
X218561D01*
X216022Y108838D01*
X199510Y149606D02*
Y164841D01*
X207128D01*
X209667Y162302D01*
Y157224D01*
X207128Y154684D01*
X199510D01*
X204588D02*
X209667Y149606D01*
X224902D02*
X214745D01*
X224902Y159763D01*
Y162302D01*
X222363Y164841D01*
X217284D01*
X214745Y162302D01*
X367147Y97532D02*
X364608Y100071D01*
X359529D01*
X356990Y97532D01*
Y87375D01*
X359529Y84836D01*
X364608D01*
X367147Y87375D01*
X382382Y84836D02*
X372225D01*
X382382Y94993D01*
Y97532D01*
X379843Y100071D01*
X374764D01*
X372225Y97532D01*
X160147Y187828D02*
Y172593D01*
X167764D01*
X170304Y175132D01*
Y185289D01*
X167764Y187828D01*
X160147D01*
X175382Y172593D02*
X180460D01*
X177921D01*
Y187828D01*
X175382Y185289D01*
X205864Y206625D02*
X203325Y209164D01*
X198246D01*
X195707Y206625D01*
Y196468D01*
X198246Y193929D01*
X203325D01*
X205864Y196468D01*
X210942Y206625D02*
X213481Y209164D01*
X218560D01*
X221099Y206625D01*
Y204086D01*
X218560Y201546D01*
X216020D01*
X218560D01*
X221099Y199007D01*
Y196468D01*
X218560Y193929D01*
X213481D01*
X210942Y196468D01*
D18*
X394970Y83820D02*
X420370D01*
X394970D02*
Y134620D01*
X420370D01*
Y83820D02*
Y134620D01*
X353370Y133890D02*
Y137890D01*
X360370Y133890D02*
Y137890D01*
X208820Y96210D02*
X212820D01*
X208820Y89210D02*
X212820D01*
X207550Y132390D02*
X211550D01*
X207550Y139390D02*
X211550D01*
X158680Y142080D02*
Y159080D01*
X177680Y164080D02*
X181680Y159080D01*
X158680D02*
X162680Y164080D01*
X181680Y142080D02*
Y159080D01*
X162680Y164080D02*
X177680D01*
X158680Y103080D02*
X181680D01*
X158680D02*
Y122080D01*
X181680Y103080D02*
Y122080D01*
M02*
