M48
;Layer_Color=9474304
;FILE_FORMAT=4:4
METRIC,LZ
;TYPE=PLATED
T1F00S00C0.2000
T2F00S00C1.5000
%
T01
X0036725Y000685
X003745Y0006875
X00389
X0039625Y00069
X0036175Y0010325
X0033475Y0016725
X0034279Y0020854
X003435Y0022825
X00350998Y00223002
X00366997
X003485Y00237
X0034575Y0025175
X0034575Y002835
X0034625Y00312
X003545
X003365Y00336
X0032825
X00276Y00283
X00293Y00265
X0028625Y0021
X00286Y0019175
X002525Y0020975
X0023975Y002005
X00216631Y00210237
X0022175Y002295
X0021475Y0023925
X00211998Y00256003
X00222Y002545
X0024525Y0025175
X0024575Y00233
X00255Y00242
X00264Y0023325
X0026425Y0025125
X002625Y002745
X002525
X002425Y0027575
X002475Y00284
X002575Y00291
X0026225Y0034925
X00237997Y00349002
X00215Y00349
X00170998Y00342998
X001575Y0035225
X0016475Y0036475
X001655Y0037775
X0016525Y0039225
X0017375Y0041525
X0020275Y0029975
X0016025Y0027925
X0014825Y0024275
X00156Y002335
X0014825Y0018975
X00163Y00114
X00175Y0008525
X0017775Y0006675
X00172Y0004575
X001715Y0002375
X0010825Y00036
X0009445Y0010505
X00198002Y00145997
X0023775Y001405
X00263002Y00146997
X00174Y0042825
X0017375Y004415
X001775Y00453
X0009325Y00441
X00365Y0045225
X0037875Y004525
X00394Y0045275
T02
X0045Y001
Y002
Y003
Y004
X0005Y003
Y002
M30
